<svg xmlns:svg="http://www.w3.org/2000/svg" xmlns="http://www.w3.org/2000/svg" xmlns:xlink="http://www.w3.org/1999/xlink" preserveAspectRatio="xMidYMid meet" width="100%" height="100%" viewBox="0 0 50 50">
<title>SchachBrett</title>
<defs>
	<style>
			.schachText {fill:#838B83; font-size:2px; font-weight:bold; line-height:125%; font-family:sans-serif;}
			.dunkleFeld {fill:#838B83; stroke:none;}
			.helleFeld	{fill:white; stroke:none;}
			.hgFeld			{fill:LightGray; stroke:none;}
	</style>
	<rect id="zelleDunkel"	y="5" x="5" height="5" width="5"  class="dunkleFeld"/>
	<rect id="zelleHell"		y="5" x="5" height="5" width="5"  class="helleFeld"/>
	
	<g id="linieBlack">
	 <use xlink:href="#zelleDunkel" transform="translate(0,	35)" id="a1"/>
	 <use xlink:href="#zelleHell"		transform="translate(5, 35)" id="b1"/>
	 <use xlink:href="#zelleDunkel" transform="translate(10, 35)" id="c1"/>
	 <use xlink:href="#zelleHell"		transform="translate(15, 35)" id="d1"/>
	 <use xlink:href="#zelleDunkel" transform="translate(20, 35)" id="e1"/>
	 <use xlink:href="#zelleHell"		transform="translate(25, 35)" id="f1"/>
	 <use xlink:href="#zelleDunkel" transform="translate(30, 35)" id="g1"/>
	 <use xlink:href="#zelleHell"		transform="translate(35, 35)" id="h1"/>
	</g>
	
	<g id="linieWhite">
	 <use xlink:href="#zelleHell"		transform="translate(0, 30)" id="a2"/>
	 <use xlink:href="#zelleDunkel" transform="translate(5, 30)" id="b2"/>
	 <use xlink:href="#zelleHell"		transform="translate(10, 30)" id="c2"/>
	 <use xlink:href="#zelleDunkel" transform="translate(15, 30)" id="d2"/>
	 <use xlink:href="#zelleHell"		transform="translate(20, 30)" id="e2"/>
	 <use xlink:href="#zelleDunkel" transform="translate(25, 30)" id="f2"/>
	 <use xlink:href="#zelleHell"		transform="translate(30, 30)" id="g2"/>
	 <use xlink:href="#zelleDunkel" transform="translate(35, 30)" id="h2"/>
	</g>
</defs>
  
   <g>
      <rect id="hg"		x="1" 	y="1"	 rx="1" ry="1"		width="48" height="48" class="hgFeld" />
			<rect id="hg-1" x="4.5" y="4.5" 								width="41" height="41" class="dunkleFeld" />
   </g>
	 
	 
	 <use xlink:href="#linieBlack"	transform="translate(0,	0)"		id="L1"/>
	 <use xlink:href="#linieWhite"	transform="translate(0, 0)"		id="L2"/>
	 <use xlink:href="#linieBlack"	transform="translate(0,	-10)" id="L3"/>
	 <use xlink:href="#linieWhite"	transform="translate(0, -10)" id="L4"/>
	 <use xlink:href="#linieBlack"	transform="translate(0,	-20)" id="L5"/>
	 <use xlink:href="#linieWhite"	transform="translate(0, -20)" id="L6"/>
	 <use xlink:href="#linieBlack"	transform="translate(0,	-30)" id="L7"/>
	 <use xlink:href="#linieWhite"	transform="translate(0, -30)" id="L8"/>
	 
	 <g>
		<text x="6.5" y="48"  class="schachText">A</text>
		<text x="11.7" y="48" class="schachText">B</text>
		<text x="16.7" y="48" class="schachText">C</text>
		<text x="21.9" y="48" class="schachText">D</text>
		<text x="27.0" y="48" class="schachText">E</text>
		<text x="32.2" y="48" class="schachText">F</text>
		<text x="36.9" y="48" class="schachText">G</text>
		<text x="41.9" y="48" class="schachText">H</text>
	 </g>
	 
	 <g>
		<text x="2.2" y="43.5" class="schachText">1</text>
		<text x="2.2" y="38.5" class="schachText">2</text>
		<text x="2.2" y="33.5" class="schachText">3</text>
		<text x="2.2" y="28.5" class="schachText">4</text>
		<text x="2.2" y="23.5" class="schachText">5</text>
		<text x="2.2" y="18.5" class="schachText">6</text>
		<text x="2.2" y="13.5" class="schachText">7</text>
		<text x="2.2" y="8.5"	 class="schachText">8</text>
	 </g>
</svg>
